<?xml version="1.0" encoding="UTF-8"?>
<svg id="Layer_1" data-name="Layer 1" xmlns="http://www.w3.org/2000/svg" xmlns:xlink="http://www.w3.org/1999/xlink" viewBox="0 0 1046.54 977.79">
  <defs>
    <style>
      .cls-1 {
        fill: #065f46;
      }

      .cls-1, .cls-2 {
        stroke-width: 0px;
      }

      .cls-3 {
        filter: url(#drop-shadow-1);
      }

      .cls-2 {
        fill: #84cc16;
      }
    </style>
    <filter id="drop-shadow-1" filterUnits="userSpaceOnUse">
      <feOffset dx="10" dy="7"/>
      <feGaussianBlur result="blur" stdDeviation="17"/>
      <feFlood flood-color="#262626" flood-opacity=".67"/>
      <feComposite in2="blur" operator="in"/>
      <feComposite in="SourceGraphic"/>
    </filter>
  </defs>
  <rect class="cls-1" width="1046.54" height="977.79" rx="180.12" ry="180.12"/>
  <g class="cls-3">
    <path class="cls-2" d="m801.67,812.53c-24.95,0-45.24-20.29-45.24-45.24s20.29-45.24,45.24-45.24,45.24,20.29,45.24,45.24-20.29,45.24-45.24,45.24Zm0-69.6c-13.43,0-24.36,10.93-24.36,24.36s10.93,24.36,24.36,24.36,24.36-10.93,24.36-24.36-10.93-24.36-24.36-24.36Zm-382.8,69.6c-24.95,0-45.24-20.29-45.24-45.24s20.29-45.24,45.24-45.24,45.24,20.29,45.24,45.24-20.29,45.24-45.24,45.24Zm0-69.6c-13.43,0-24.36,10.93-24.36,24.36s10.93,24.36,24.36,24.36,24.36-10.93,24.36-24.36-10.93-24.36-24.36-24.36Zm417.6-104.4h-417.6c-5.15,0-9.54-3.76-10.32-8.85l-21.06-136.89c-.48-1.2-.75-2.52-.75-3.89,0-.27,0-.53.03-.79l-36.76-238.91c-.48-1.2-.75-2.52-.75-3.9,0-.27.01-.53.03-.79l-8.98-58.37h-95.44c-5.77,0-10.44-4.67-10.44-10.44s4.67-10.44,10.44-10.44h104.4c5.15,0,9.54,3.76,10.32,8.85l9.35,60.75h502.33c3.28,0,6.36,1.54,8.33,4.15s2.6,6,1.7,9.15l-69.6,243.6c-1.28,4.48-5.38,7.57-10.04,7.57h-392.04l18.2,118.32h408.64c5.77,0,10.44,4.67,10.44,10.44s-4.67,10.44-10.44,10.44Zm-430.05-160.08h387.38l63.63-222.72h-485.28l34.26,222.72Zm-91.94,90.48h-139.2c-5.77,0-10.44-4.67-10.44-10.44s4.67-10.44,10.44-10.44h139.2c5.77,0,10.44,4.67,10.44,10.44s-4.67,10.44-10.44,10.44Zm-34.8-104.4h-104.4c-5.77,0-10.44-4.67-10.44-10.44s4.67-10.44,10.44-10.44h104.4c5.77,0,10.44,4.67,10.44,10.44s-4.67,10.44-10.44,10.44Zm-34.8-104.4h-69.6c-5.77,0-10.44-4.67-10.44-10.44s4.67-10.44,10.44-10.44h69.6c5.77,0,10.44,4.67,10.44,10.44s-4.67,10.44-10.44,10.44Z"/>
  </g>
</svg>